<svg xmlns="http://www.w3.org/2000/svg" viewBox="0 0 400 300" fill="none" stroke-width="1.5" stroke-linecap="round" stroke-linejoin="round">
  <!-- Background -->
  <rect x="50" y="40" width="300" height="220" rx="12" fill="#F8FAFC" stroke="#E2E8F0"/>
  <!-- Document -->
  <rect x="100" y="70" width="120" height="160" rx="8" fill="white" stroke="#CBD5E1"/>
  <path d="M100 100 L220 100" stroke="#E2E8F0"/>
  <path d="M100 130 L220 130" stroke="#E2E8F0"/>
  <path d="M100 160 L220 160" stroke="#E2E8F0"/>
  <path d="M100 190 L180 190" stroke="#E2E8F0"/>
  <!-- Text lines -->
  <rect x="115" y="82" width="60" height="6" rx="3" fill="#E2E8F0"/>
  <rect x="115" y="112" width="80" height="6" rx="3" fill="#E2E8F0"/>
  <rect x="115" y="142" width="70" height="6" rx="3" fill="#E2E8F0"/>
  <!-- Stamp -->
  <circle cx="230" cy="190" r="35" fill="#ECFDF5" stroke="#10B981" stroke-width="2"/>
  <circle cx="230" cy="190" r="25" fill="none" stroke="#10B981" stroke-width="1" stroke-dasharray="4 3"/>
  <text x="230" y="195" text-anchor="middle" fill="#059669" font-size="14" font-weight="bold" stroke="none">已登记</text>
  <!-- Data flow lines -->
  <path d="M250 80 Q280 80 280 120" stroke="#6366F1" stroke-dasharray="4 4" opacity="0.5"/>
  <path d="M260 90 Q290 90 290 130" stroke="#3B82F6" stroke-dasharray="4 4" opacity="0.4"/>
  <!-- Decorative dots -->
  <circle cx="280" cy="70" r="5" fill="#6366F1" opacity="0.4"/>
  <circle cx="300" cy="90" r="4" fill="#3B82F6" opacity="0.3"/>
  <circle cx="290" cy="140" r="6" fill="#10B981" opacity="0.3"/>
  <!-- Seal icon -->
  <rect x="70" y="170" width="30" height="30" rx="4" fill="#FFFBEB" stroke="#F59E0B"/>
  <circle cx="85" cy="185" r="6" fill="none" stroke="#F59E0B"/>
</svg>
